<svg width="34" height="31" viewBox="0 0 34 31" fill="none" xmlns="http://www.w3.org/2000/svg">
<path d="M15.8571 1L4.42857 1M33 27.5833L33 8.25C33 6.91532 31.9766 5.83334 30.7143 5.83334L3.28572 5.83333C2.02335 5.83333 1 6.91531 1 8.25L1 27.5833C1 28.918 2.02335 30 3.28571 30L30.7143 30C31.9766 30 33 28.918 33 27.5833ZM21.5714 22.75C19.0467 22.75 17 20.586 17 17.9167C17 15.2473 19.0467 13.0833 21.5714 13.0833C24.0961 13.0833 26.1428 15.2473 26.1428 17.9167C26.1428 20.586 24.0961 22.75 21.5714 22.75Z" stroke="black" stroke-width="2"/>
</svg>
