<svg width="31" height="32" viewBox="0 0 31 32" fill="none" xmlns="http://www.w3.org/2000/svg">
<path d="M9.28571 16.0098L17.5714 16.0098M22.75 8.5049L17.5714 16L22.75 23.5147M30 5.28572C30 7.65143 28.144 9.57144 25.8571 9.57144C23.5703 9.57144 21.7143 7.65143 21.7143 5.28572C21.7143 2.92 23.5703 1 25.8571 1C28.144 1 30 2.92 30 5.28572ZM30 26.7143C30 29.08 28.144 31 25.8571 31C23.5703 31 21.7143 29.08 21.7143 26.7143C21.7143 24.3486 23.5703 22.4286 25.8571 22.4286C28.144 22.4286 30 24.3486 30 26.7143ZM9.28571 16C9.28571 18.3657 7.42971 20.2857 5.14286 20.2857C2.856 20.2857 1 18.3657 1 16C1 13.6343 2.856 11.7143 5.14286 11.7143C7.42971 11.7143 9.28571 13.6343 9.28571 16Z" stroke="black" stroke-width="2" stroke-linecap="square"/>
</svg>
